<?xml version="1.0"?>
<svg xmlns="http://www.w3.org/2000/svg" xmlns:xlink="http://www.w3.org/1999/xlink" version="1.1" id="Capa_1" x="0px" y="0px" viewBox="0 0 512 512" style="enable-background:new 0 0 512 512;" xml:space="preserve" width="512px" height="512px"><g><g>
	<g>
		<g>
			<path d="M146,300c-24.813,0-45,20.187-45,45s20.187,45,45,45s45-20.187,45-45S170.813,300,146,300z M146,360     c-8.271,0-15-6.729-15-15s6.729-15,15-15s15,6.729,15,15S154.271,360,146,360z" data-original="#000000" class="active-path" data-old_color="#8A6868" fill="#FFFFFF"/>
			<path d="M366,300c-24.813,0-45,20.187-45,45s20.187,45,45,45s45-20.187,45-45S390.813,300,366,300z M366,360     c-8.271,0-15-6.729-15-15s6.729-15,15-15s15,6.729,15,15S374.271,360,366,360z" data-original="#000000" class="active-path" data-old_color="#8A6868" fill="#FFFFFF"/>
			<path d="M101,260h310V90H101V260z M271,120h110v110H271V120z M131,120h110v110H131V120z" data-original="#000000" class="active-path" data-old_color="#8A6868" fill="#FFFFFF"/>
			<path d="M401.731,18.206C362.597,6.466,310.842,0,256,0c-54.842,0-106.597,6.466-145.731,18.206C53.018,35.381,41,58.571,41,75     v330c0,24.813,20.187,45,45,45h65.45l-57.944,62h41.062l57.944-62h126.975l57.944,62h41.062l-57.944-62H426     c24.813,0,45-20.187,45-45V75C471,58.571,458.982,35.381,401.731,18.206z M441,405c0,8.271-6.729,15-15,15H86     c-8.271,0-15-6.729-15-15V75c0-5.294,13.001-17.593,47.889-28.059C155.304,36.016,203.998,30,256,30     s100.696,6.016,137.111,16.941C427.999,57.407,441,69.706,441,75V405z" data-original="#000000" class="active-path" data-old_color="#8A6868" fill="#FFFFFF"/>
		</g>
	</g>
</g></g> </svg>
